<svg width="9" height="14" viewBox="0 0 9 14" fill="none" xmlns="http://www.w3.org/2000/svg">
<path fill-rule="evenodd" clip-rule="evenodd" d="M1.35894 5.6643C1.3589 5.79868 1.31901 5.93003 1.24432 6.04173C1.16963 6.15344 1.06349 6.24049 0.939329 6.29188C0.815167 6.34327 0.678556 6.35669 0.546767 6.33045C0.414978 6.30421 0.29393 6.23947 0.198928 6.14444C0.103926 6.0494 0.0392368 5.92833 0.0130387 5.79653C-0.0131594 5.66474 0.000310083 5.52813 0.0517448 5.40399C0.103179 5.27984 0.190269 5.17374 0.302003 5.09909C0.413736 5.02444 0.545096 4.98459 0.679472 4.98459C0.859711 4.98463 1.03255 5.05626 1.15998 5.18373C1.2874 5.3112 1.35897 5.48407 1.35894 5.6643ZM7.63414 5.1972L7.70069 4.53144C7.70067 2.0288 5.31022 0 2.80848 0H2.4461C1.9986 0.000351304 1.55346 0.0648142 1.12424 0.191424C1.08956 0.201434 1.0581 0.220324 1.03297 0.246226C1.00783 0.272127 0.989895 0.304143 0.980931 0.339104C0.971967 0.374066 0.972287 0.410762 0.981859 0.445562C0.99143 0.480362 1.00992 0.51206 1.0355 0.53752C2.04528 1.53238 2.6547 2.95912 2.70968 4.55363H2.71352V5.5703C2.71352 5.64269 2.73189 5.71389 2.76691 5.77723L3.94898 7.91533L3.96709 7.93869C4.04677 8.03734 4.08555 8.16281 4.07544 8.28922C4.05546 8.54918 3.83162 8.7464 3.57099 8.7464H2.71352V10.263C3.16755 10.2616 3.61342 10.2232 3.9941 10.033C4.23394 9.9132 4.51586 10.0905 4.51586 10.3587C4.51589 10.4261 4.49711 10.4922 4.46163 10.5496C4.42614 10.6069 4.37537 10.6532 4.31501 10.6833C3.83744 10.9207 3.28266 10.9861 2.71352 10.9881V11.6953C2.71356 11.9585 2.60904 12.211 2.42293 12.3972C2.23683 12.5833 1.9844 12.688 1.72117 12.688H0.838144C0.590304 12.688 0.51056 13.0238 0.732976 13.1332C1.35049 13.4371 2.02964 13.5948 2.71789 13.5943C5.20928 13.5943 6.90909 11.5294 7.2477 9.06285L7.25853 8.9545H7.41077C7.78448 8.9545 7.80163 8.44557 7.85469 8.1465L8.1899 5.992C8.24725 5.59512 7.96096 5.26555 7.63414 5.1972ZM4.75642 6.344C4.62197 6.34405 4.49052 6.30423 4.37871 6.22957C4.2669 6.15491 4.17973 6.04877 4.12825 5.92457C4.07676 5.80037 4.06326 5.66369 4.08946 5.53182C4.11566 5.39995 4.18038 5.27881 4.27543 5.18372C4.37048 5.08863 4.4916 5.02387 4.62346 4.99762C4.75532 4.97138 4.892 4.98482 5.01622 5.03626C5.14044 5.0877 5.24662 5.17482 5.32132 5.28661C5.39602 5.39839 5.43589 5.52982 5.43589 5.66427C5.4359 5.75352 5.41834 5.84189 5.38421 5.92435C5.35007 6.00681 5.30002 6.08174 5.23693 6.14486C5.17383 6.20798 5.09892 6.25805 5.01648 6.29222C4.93403 6.32639 4.84566 6.34398 4.75642 6.344Z" fill="black"/>
</svg>
