<svg width="16" height="16" viewBox="0 0 16 16" fill="none" xmlns="http://www.w3.org/2000/svg">
<path fill-rule="evenodd" clip-rule="evenodd" d="M9.52587 7.46023C9.64004 7.51656 9.7719 7.52522 9.89246 7.48432C10.013 7.44342 10.1124 7.3563 10.1687 7.24214C10.3343 6.90758 10.4199 6.53916 10.4189 6.16588C10.4189 4.82313 9.32655 3.73068 7.98375 3.73068C6.64095 3.73068 5.54855 4.82308 5.54855 6.16588C5.54829 6.44949 5.59768 6.73096 5.69448 6.99754L5.69163 6.99863C5.77935 7.198 5.82456 7.41347 5.82435 7.63128C5.82415 7.8491 5.77855 8.06448 5.69047 8.26369L5.69275 8.26439C5.5935 8.50679 5.56779 8.77304 5.61882 9.02995C5.66986 9.28686 5.79538 9.52307 5.97974 9.70912C6.1641 9.89518 6.39915 10.0229 6.65559 10.0762C6.91202 10.1296 7.17849 10.1063 7.42179 10.0093C7.66508 9.91228 7.87443 9.74578 8.02375 9.53058C8.17306 9.31537 8.25573 9.06098 8.26145 8.79911C8.26716 8.53724 8.19568 8.27949 8.0559 8.05797C7.91612 7.83645 7.71424 7.66098 7.47541 7.55342C7.46738 7.54951 7.4592 7.54582 7.45087 7.54233L7.44336 7.53913L7.44176 7.53842C7.19229 7.43994 6.97437 7.27531 6.81146 7.06224C6.64855 6.84917 6.54681 6.59572 6.51717 6.32915C6.48753 6.06258 6.53111 5.79297 6.64324 5.54931C6.75536 5.30566 6.93179 5.09718 7.15354 4.9463C7.37529 4.79542 7.63397 4.70783 7.90177 4.69297C8.16957 4.67811 8.43636 4.73653 8.67344 4.86195C8.91053 4.98738 9.10893 5.17505 9.24733 5.4048C9.38573 5.63455 9.45888 5.89768 9.45891 6.1659C9.45962 6.39184 9.40787 6.61486 9.30773 6.8174C9.27984 6.87393 9.26336 6.9354 9.25924 6.9983C9.25511 7.06121 9.26341 7.1243 9.28366 7.184C9.30392 7.24369 9.33574 7.29881 9.37729 7.3462C9.41885 7.3936 9.46934 7.43235 9.52587 7.46023ZM10.9164 3.10962C10.4295 2.62282 9.83247 2.26063 9.1758 2.05376C8.51914 1.8469 7.82226 1.80147 7.1443 1.92133C6.46634 2.04119 5.82728 2.3228 5.28135 2.74227C4.73542 3.16174 4.29871 3.7067 4.00827 4.33092C3.95518 4.44623 3.94993 4.57787 3.99366 4.69704C4.0374 4.81621 4.12655 4.9132 4.24163 4.9668C4.3567 5.02039 4.48832 5.02622 4.60768 4.983C4.72704 4.93979 4.82442 4.85105 4.87851 4.73622C5.14536 4.16249 5.57058 3.67695 6.1041 3.33676C6.63762 2.99658 7.25724 2.81591 7.88999 2.81604C9.72064 2.81604 11.21 4.30538 11.21 6.13604C11.2108 6.7664 11.0315 7.38388 10.6932 7.91575L6.96818 12.7463C6.96607 12.7491 6.96413 12.7519 6.9621 12.7546C6.79751 12.9458 6.57836 13.082 6.33409 13.1449C6.08983 13.2079 5.83214 13.1946 5.59567 13.1068C5.35919 13.019 5.15523 12.861 5.01121 12.6539C4.86719 12.4468 4.78999 12.2006 4.78999 11.9483V11.0175C4.78999 10.8902 4.73942 10.7681 4.6494 10.6781C4.55938 10.5881 4.43729 10.5375 4.30999 10.5375C4.18268 10.5375 4.06059 10.5881 3.97058 10.6781C3.88056 10.7681 3.82999 10.8902 3.82999 11.0175V11.9483C3.82999 13.159 4.81498 14.144 6.02568 14.144C6.35148 14.1446 6.67329 14.0723 6.96762 13.9326C7.26195 13.7929 7.52137 13.5893 7.72695 13.3365C7.73768 13.3234 7.74772 13.3096 7.75703 13.2954L11.4669 8.48425C11.4679 8.48302 11.4688 8.48172 11.4697 8.48047C11.4718 8.47767 11.4739 8.47484 11.4759 8.47198C11.4799 8.46644 11.4838 8.46085 11.4875 8.45521C11.4884 8.4538 11.4894 8.4525 11.4904 8.45108C11.4916 8.44921 11.4927 8.4473 11.4939 8.44542L11.4955 8.443C12.0212 7.62108 12.2503 6.64427 12.145 5.67435C12.0397 4.70442 11.6062 3.79956 10.9164 3.10962Z" fill="black"/>
</svg>
