<svg width="12" height="13" viewBox="0 0 12 13" fill="none" xmlns="http://www.w3.org/2000/svg">
<path fill-rule="evenodd" clip-rule="evenodd" d="M11.6139 3.84473C11.4739 3.6891 11.2785 3.59458 11.0696 3.58148C10.8607 3.56837 10.655 3.63773 10.4967 3.77465L6.76375 7.00245C6.70565 7.05269 6.63016 7.07814 6.5535 7.07331C6.47684 7.06848 6.40514 7.03378 6.3538 6.97665C6.30572 6.92314 6.27895 6.85386 6.27855 6.78193C6.27816 6.71001 6.30417 6.64043 6.35165 6.58641L10.1628 2.25154C10.4939 1.87493 10.4612 1.29474 10.0783 0.97095C9.9003 0.820501 9.67035 0.745889 9.43789 0.763146C9.20543 0.780402 8.98902 0.888149 8.83514 1.06324L5.20197 5.19573C5.17411 5.22744 5.13985 5.25288 5.10145 5.27038C5.06304 5.28789 5.02136 5.29706 4.97916 5.29729C4.93695 5.29752 4.89517 5.28881 4.85658 5.27172C4.81798 5.25464 4.78345 5.22958 4.75524 5.19818C4.71335 5.15157 4.68715 5.09299 4.68033 5.0307C4.67351 4.96841 4.68642 4.90555 4.71722 4.85098L6.71996 1.30367C6.95943 0.87951 6.81252 0.334517 6.38396 0.103413C6.18465 -0.00394509 5.95118 -0.0288544 5.73371 0.0340358C5.51624 0.096926 5.3321 0.242599 5.22085 0.439765L2.20557 5.78055C2.19378 5.80146 2.17538 5.81787 2.15327 5.82722C2.13116 5.83657 2.10657 5.83832 2.08335 5.83222C2.06013 5.82611 2.03959 5.81248 2.02494 5.79346C2.01029 5.77444 2.00235 5.7511 2.00237 5.72709V3.24101C2.00257 3.23301 2.00237 3.22501 2.00237 3.21701C2.0029 3.08541 1.97743 2.955 1.92744 2.83326C1.87744 2.71152 1.80389 2.60085 1.71102 2.50761C1.61815 2.41436 1.50777 2.34037 1.38624 2.28989C1.2647 2.2394 1.13439 2.21341 1.00278 2.21341C0.871177 2.21341 0.740866 2.2394 0.619329 2.28989C0.497791 2.34037 0.387419 2.41436 0.294546 2.50761C0.201673 2.60085 0.128127 2.71152 0.0781288 2.83326C0.0281305 2.955 0.00266408 3.08541 0.00319061 3.21701C0.00319061 3.22501 0.00360652 3.23301 0.00379852 3.24101L0.00319061 8.85663C-0.0182181 9.37546 0.0682922 9.89308 0.257248 10.3768C0.446204 10.8604 0.733492 11.2996 1.10093 11.6665C2.46935 13.0358 4.63021 13.1285 6.10612 11.9448L11.1102 8.41005C11.4548 8.16664 11.5425 7.68517 11.2925 7.34532C11.1763 7.18747 11.0028 7.08148 10.8093 7.05014C10.6158 7.01879 10.4178 7.06458 10.2577 7.17767L8.18772 8.63984C8.1306 8.6802 8.06065 8.69818 7.99115 8.69037C7.92165 8.68256 7.85744 8.64951 7.81069 8.59749C7.78529 8.56923 7.76578 8.53618 7.7533 8.50029C7.74082 8.4644 7.73562 8.42638 7.738 8.38846C7.74039 8.35053 7.75031 8.31346 7.76718 8.27941C7.78406 8.24537 7.80756 8.21503 7.8363 8.19017L11.5313 4.99513C11.8721 4.7005 11.915 4.17975 11.6139 3.84473Z" fill="black"/>
</svg>
