<svg width="15" height="8" viewBox="0 0 15 8" fill="none" xmlns="http://www.w3.org/2000/svg">
<path fill-rule="evenodd" clip-rule="evenodd" d="M7.4093 0.00206396C7.34502 0.00206396 7.28064 0 7.216 0C7.15136 0 7.08698 0.00206396 7.0227 0.00206396C4.02136 0.00206396 0.983856 2.11749 0 4C0.983856 5.8825 3.98936 7.99794 6.9907 7.99794C7.05498 7.99794 7.11934 8 7.184 8C7.24866 8 7.31302 7.99794 7.3773 7.99794C10.3786 7.99794 13.4162 5.8825 14.4 4C13.4162 2.11749 10.4106 0.00206396 7.4093 0.00206396ZM7.17792 6.88C6.60831 6.88 6.05149 6.71109 5.57788 6.39463C5.10426 6.07817 4.73513 5.62838 4.51715 5.10213C4.29917 4.57588 4.24213 3.9968 4.35326 3.43814C4.46438 2.87947 4.73868 2.36631 5.14145 1.96353C5.54423 1.56076 6.05739 1.28646 6.61606 1.17534C7.17473 1.06421 7.7538 1.12125 8.28005 1.33923C8.8063 1.55721 9.25609 1.92634 9.57255 2.39996C9.88901 2.87357 10.0579 3.43039 10.0579 4C10.0579 4.76382 9.75449 5.49636 9.21439 6.03647C8.67428 6.57657 7.94174 6.88 7.17792 6.88ZM1.12672 4.00059C1.60323 3.33507 2.36512 2.6553 3.25338 2.11554C3.54215 1.93997 3.84088 1.78133 4.14806 1.64042C3.62028 2.31737 3.33469 3.15173 3.33695 4.01011C3.33921 4.86849 3.62919 5.70133 4.16054 6.37549C3.84397 6.23108 3.53645 6.06758 3.2397 5.88589C2.3595 5.34762 1.6025 4.66779 1.12672 4.00059ZM11.1467 5.88454C10.8363 6.07331 10.5145 6.24247 10.1829 6.39102C10.7264 5.70906 11.0213 4.86231 11.0191 3.9903C11.0169 3.11829 10.7177 2.27305 10.1708 1.59386C10.5116 1.74557 10.8422 1.91937 11.1604 2.11413C12.0406 2.6524 12.7976 3.3323 13.2734 3.9995C12.7968 4.66502 12.035 5.34477 11.1467 5.88454ZM8.7669 3.25045C8.73643 3.38134 8.67231 3.50201 8.58088 3.60051C8.48944 3.69901 8.37387 3.77192 8.2456 3.81202C8.11733 3.85212 7.9808 3.85803 7.84955 3.82915C7.71829 3.80027 7.59686 3.73761 7.49726 3.64738C7.39766 3.55714 7.32336 3.44246 7.28171 3.31468C7.24006 3.18691 7.2325 3.05047 7.25979 2.91887C7.28708 2.78728 7.34826 2.66509 7.43728 2.56441C7.52631 2.46373 7.64008 2.38804 7.76734 2.34485C7.38488 2.20875 6.96707 2.2094 6.58503 2.34667C6.20299 2.48395 5.88033 2.74938 5.67196 3.09778C5.4636 3.44618 5.3824 3.85603 5.4422 4.25755C5.502 4.65908 5.69909 5.02748 5.99993 5.30005C6.30078 5.57261 6.68678 5.7325 7.09224 5.7525C7.49771 5.7725 7.89757 5.65138 8.22378 5.40974C8.54999 5.16811 8.78238 4.82089 8.88141 4.4272C8.98043 4.03351 8.93996 3.61766 8.7669 3.25045Z" fill="black"/>
</svg>
