<svg width="420" height="420" viewBox="0 0 420 420" fill="none" xmlns="http://www.w3.org/2000/svg">
<path d="M325.642 202.88L248.967 176.026C248.758 175.951 248.523 176.026 248.389 176.193L237.629 190.068C237.537 190.194 237.504 190.353 237.537 190.504C237.571 190.654 237.671 190.78 237.813 190.855L284.989 214.167C285.065 214.2 285.14 214.217 285.215 214.217C285.257 214.217 285.299 214.217 285.341 214.2L325.609 203.868C325.826 203.809 325.986 203.616 325.994 203.39C326.002 203.164 325.86 202.955 325.651 202.88H325.642Z" fill="#231F20"/>
<path d="M86.7319 151.751C99.5094 151.751 109.868 141.393 109.868 128.616C109.868 115.838 99.5094 105.48 86.7319 105.48C73.9544 105.48 63.5961 115.838 63.5961 128.616C63.5961 141.393 73.9544 151.751 86.7319 151.751Z" fill="white"/>
<path d="M86.7319 104.894C73.6526 104.894 63.01 115.536 63.01 128.616C63.01 141.695 73.6526 152.338 86.7319 152.338C99.8112 152.338 110.454 141.695 110.454 128.616C110.454 115.536 99.8112 104.894 86.7319 104.894ZM86.7319 151.165C74.2974 151.165 64.1823 141.05 64.1823 128.616C64.1823 116.181 74.2974 106.066 86.7319 106.066C99.1664 106.066 109.281 116.181 109.281 128.616C109.281 141.05 99.1664 151.165 86.7319 151.165Z" fill="#D1D3D4"/>
<path d="M92.6519 217.717C89.6626 217.717 87.2427 220.137 87.2427 223.126C87.2427 226.116 89.6626 228.536 92.6519 228.536C95.6412 228.536 98.0611 226.116 98.0611 223.126C98.0611 220.137 95.6412 217.717 92.6519 217.717Z" fill="white"/>
<path d="M92.6519 217.139C89.3444 217.139 86.6565 219.827 86.6565 223.126C86.6565 226.426 89.3444 229.122 92.6519 229.122C95.9594 229.122 98.6389 226.434 98.6389 223.126C98.6389 219.819 95.951 217.139 92.6519 217.139ZM92.6519 227.95C89.9975 227.95 87.8288 225.789 87.8288 223.126C87.8288 220.464 89.9891 218.312 92.6519 218.312C95.3146 218.312 97.4666 220.472 97.4666 223.126C97.4666 225.781 95.3063 227.95 92.6519 227.95Z" fill="#D1D3D4"/>
<path d="M296.31 153.929C294.82 153.929 293.606 155.143 293.606 156.633C293.606 158.124 294.82 159.338 296.31 159.338C297.801 159.338 299.015 158.124 299.015 156.633C299.015 155.143 297.801 153.929 296.31 153.929Z" fill="white"/>
<path d="M296.31 153.342C294.493 153.342 293.019 154.816 293.019 156.633C293.019 158.45 294.493 159.924 296.31 159.924C298.127 159.924 299.601 158.45 299.601 156.633C299.601 154.816 298.127 153.342 296.31 153.342ZM296.31 158.743C295.146 158.743 294.192 157.797 294.192 156.625C294.192 155.452 295.138 154.506 296.31 154.506C297.482 154.506 298.429 155.452 298.429 156.625C298.429 157.797 297.482 158.743 296.31 158.743Z" fill="#D1D3D4"/>
<path d="M365.128 336.757C377.018 324.867 377.018 305.59 365.128 293.7C353.238 281.81 333.961 281.81 322.071 293.7C310.181 305.59 310.181 324.867 322.071 336.757C333.961 348.647 353.238 348.647 365.128 336.757Z" fill="white"/>
<path d="M373.521 307.003C368.983 290.507 351.876 280.777 335.372 285.316C318.877 289.854 309.147 306.969 313.685 323.465C317.47 337.223 329.996 346.266 343.612 346.266C346.333 346.266 349.088 345.906 351.834 345.152C368.33 340.614 378.06 323.499 373.521 307.003ZM369.561 329.988C365.617 336.921 359.211 341.903 351.524 344.022C343.829 346.14 335.782 345.127 328.849 341.192C321.916 337.248 316.934 330.842 314.815 323.155C310.444 307.279 319.806 290.817 335.682 286.446C338.32 285.718 340.974 285.374 343.595 285.374C356.699 285.374 368.749 294.083 372.391 307.313C374.51 315 373.505 323.055 369.561 329.988Z" fill="#D1D3D4"/>
<path d="M391.374 302.079C390.126 297.541 377.323 298.37 369.804 299.266C369.485 299.308 369.251 299.592 369.293 299.919C369.326 300.237 369.628 300.472 369.946 300.43C384.055 298.747 389.682 300.338 390.243 302.389C390.813 304.449 386.793 308.703 373.814 314.455C365.977 317.955 356.381 321.305 346.057 324.143C335.741 326.982 325.776 329.008 317.252 330.021C303.151 331.713 297.516 330.114 296.955 328.054C296.394 326.002 300.413 321.757 313.409 315.979C313.702 315.845 313.836 315.502 313.71 315.209C313.576 314.907 313.233 314.782 312.94 314.907C306.015 317.989 294.585 323.825 295.833 328.364C296.586 331.102 301.51 331.889 306.944 331.889C310.553 331.889 314.397 331.537 317.403 331.177C325.986 330.164 336.009 328.121 346.383 325.274C356.758 322.418 366.412 319.052 374.3 315.527C381.217 312.454 392.638 306.626 391.382 302.071L391.374 302.079Z" fill="#D1D3D4"/>
<path d="M334.644 139.535C331.654 139.535 329.234 141.955 329.234 144.944C329.234 147.933 331.654 150.353 334.644 150.353C337.633 150.353 340.053 147.933 340.053 144.944C340.053 141.955 337.633 139.535 334.644 139.535Z" fill="#D1D3D4"/>
<path d="M285.207 302.607H282.343V299.743C282.343 299.417 282.084 299.157 281.757 299.157C281.431 299.157 281.171 299.417 281.171 299.743V302.607H278.307C277.981 302.607 277.721 302.867 277.721 303.193C277.721 303.52 277.981 303.779 278.307 303.779H281.171V306.643C281.171 306.969 281.431 307.229 281.757 307.229C282.084 307.229 282.343 306.969 282.343 306.643V303.779H285.207C285.534 303.779 285.793 303.52 285.793 303.193C285.793 302.867 285.534 302.607 285.207 302.607Z" fill="#D1D3D4"/>
<path d="M365.081 162.771H362.217V159.907C362.217 159.581 361.958 159.321 361.631 159.321C361.305 159.321 361.045 159.581 361.045 159.907V162.771H358.181C357.855 162.771 357.595 163.03 357.595 163.357C357.595 163.684 357.855 163.943 358.181 163.943H361.045V166.807C361.045 167.133 361.305 167.393 361.631 167.393C361.958 167.393 362.217 167.133 362.217 166.807V163.943H365.081C365.408 163.943 365.667 163.684 365.667 163.357C365.667 163.03 365.408 162.771 365.081 162.771Z" fill="#D1D3D4"/>
<path d="M73.9373 314.12H71.0736V311.257C71.0736 310.93 70.814 310.671 70.4875 310.671C70.1609 310.671 69.9013 310.93 69.9013 311.257V314.12H67.0376C66.711 314.12 66.4515 314.38 66.4515 314.706C66.4515 315.033 66.711 315.293 67.0376 315.293H69.9013V318.156C69.9013 318.483 70.1609 318.742 70.4875 318.742C70.814 318.742 71.0736 318.483 71.0736 318.156V315.293H73.9373C74.2639 315.293 74.5234 315.033 74.5234 314.706C74.5234 314.38 74.2639 314.12 73.9373 314.12Z" fill="#D1D3D4"/>
<path d="M143.537 166.221H140.673V163.357C140.673 163.03 140.414 162.771 140.087 162.771C139.761 162.771 139.501 163.03 139.501 163.357V166.221H136.637C136.311 166.221 136.051 166.48 136.051 166.807C136.051 167.133 136.311 167.393 136.637 167.393H139.501V170.257C139.501 170.583 139.761 170.843 140.087 170.843C140.414 170.843 140.673 170.583 140.673 170.257V167.393H143.537C143.864 167.393 144.123 167.133 144.123 166.807C144.123 166.48 143.864 166.221 143.537 166.221Z" fill="#D1D3D4"/>
<path d="M98.0611 265.856C98.0611 265.856 113.544 285.182 134.586 283.013C155.637 280.853 158.961 265.856 158.961 265.856C158.961 265.856 118.3 278.182 98.0527 265.856H98.0611Z" fill="#D1D3D4"/>
<path d="M173.137 255.18C173.137 255.18 142.156 285.14 106.97 277.294C58.1199 266.4 20.4898 208.314 53.1964 135.457C53.1964 135.457 19.1752 184.835 36.7845 239.907C60.8915 315.293 119.112 312.186 178.371 296.787L173.137 255.18Z" fill="#D1D3D4"/>
<path d="M186.937 300.715L168.699 254.987C168.641 254.837 168.515 254.728 168.364 254.686C168.205 254.644 168.046 254.669 167.912 254.77L152.848 265.906C152.74 265.99 152.664 266.116 152.647 266.25C152.606 266.526 151.785 273.065 157.002 286.153C162.218 299.249 167.326 303.428 167.535 303.595C167.627 303.67 167.745 303.704 167.862 303.704C167.879 303.704 167.904 303.704 167.929 303.704L186.518 301.418C186.677 301.401 186.819 301.309 186.903 301.167C186.987 301.024 186.995 300.857 186.937 300.715Z" fill="#231F20"/>
<path d="M188.494 300.095L165.609 347.932C165.609 347.932 207.343 339.71 223.93 325.709C240.518 311.709 245.693 296.787 245.693 296.787L188.494 300.095Z" fill="white"/>
<path d="M246.162 296.436C246.045 296.277 245.852 296.176 245.659 296.201L188.461 299.509C188.251 299.525 188.059 299.651 187.966 299.844L165.082 347.681C164.99 347.882 165.015 348.116 165.149 348.292C165.258 348.435 165.434 348.518 165.609 348.518C165.651 348.518 165.685 348.518 165.727 348.51C166.145 348.426 207.803 340.095 224.307 326.161C240.82 312.22 246.195 297.139 246.245 296.988C246.312 296.804 246.279 296.603 246.162 296.444V296.436ZM223.554 325.257C208.816 337.708 173.489 345.663 166.656 347.12L188.879 300.656L244.822 297.424C243.457 300.74 237.604 313.4 223.562 325.257H223.554Z" fill="#231F20"/>
<path d="M178.371 213.698C156.709 214.954 120.736 235.41 120.736 235.41L170.265 254.376L214.041 217.416C214.041 217.416 200.041 212.45 178.379 213.706L178.371 213.698Z" fill="white"/>
<path d="M214.226 216.855C214.083 216.805 199.882 211.864 178.329 213.112C156.776 214.359 120.795 234.69 120.435 234.899C120.234 235.008 120.125 235.226 120.142 235.452C120.159 235.678 120.309 235.871 120.519 235.955L170.047 254.912C170.114 254.937 170.19 254.954 170.257 254.954C170.391 254.954 170.525 254.904 170.634 254.811L214.41 217.851C214.569 217.717 214.644 217.508 214.611 217.299C214.577 217.089 214.426 216.922 214.226 216.855ZM170.148 253.698L122.118 235.31C128.298 231.91 159.229 215.389 178.404 214.284C196.457 213.237 209.285 216.587 212.844 217.65L170.148 253.706V253.698Z" fill="#231F20"/>
<path d="M347.815 205.14C334.719 197.395 295.18 179.032 241.799 200.326C206.572 214.376 177.198 232.747 159.003 250.583C159.003 250.583 158.04 261.51 166.38 282.419C174.72 303.327 182.934 310.587 182.934 310.587C208.414 311.005 242.369 304.123 277.596 290.072C330.984 268.778 347.036 228.251 351.206 213.623C352.136 210.349 350.754 206.874 347.823 205.14H347.815Z" fill="white"/>
<path d="M348.116 204.638C333.739 196.139 294.585 178.647 241.581 199.781C207.736 213.279 177.491 231.642 158.593 250.164C158.492 250.265 158.433 250.39 158.417 250.533C158.375 250.985 157.538 261.837 165.836 282.636C174.134 303.436 182.206 310.729 182.549 311.031C182.649 311.123 182.792 311.173 182.926 311.173C183.654 311.181 184.383 311.19 185.128 311.19C211.286 311.19 244.897 303.746 277.813 290.616C330.817 269.482 347.187 229.842 351.767 213.782C352.772 210.256 351.273 206.497 348.116 204.63V204.638ZM350.637 213.464C346.107 229.356 329.896 268.586 277.369 289.528C243.759 302.933 209.402 310.361 183.16 310.001C182.005 308.887 174.469 301.142 166.916 282.193C159.355 263.243 159.497 252.442 159.564 250.834C178.362 232.471 208.398 214.267 242.009 200.862C294.527 179.911 333.287 197.219 347.514 205.634C350.21 207.225 351.491 210.441 350.628 213.455L350.637 213.464Z" fill="#231F20"/>
<path d="M347.815 205.14C339.492 200.217 320.467 191.014 293.999 190.428C293.999 190.428 291.094 203.909 300.991 228.728C310.888 253.555 322.276 261.334 322.276 261.334C341.074 242.695 348.544 222.925 351.198 213.623C352.127 210.349 350.746 206.874 347.815 205.14Z" fill="white"/>
<path d="M348.116 204.638C339.199 199.363 320.308 190.428 294.016 189.842H294.007C293.731 189.842 293.488 190.035 293.43 190.303C293.312 190.864 290.599 204.236 300.455 228.946C310.311 253.648 321.481 261.493 321.95 261.812C322.05 261.879 322.167 261.912 322.285 261.912C322.435 261.912 322.586 261.853 322.695 261.745C341.368 243.223 348.929 223.746 351.767 213.782C352.772 210.256 351.273 206.497 348.116 204.63V204.638ZM350.637 213.464C347.849 223.252 340.446 242.335 322.226 260.556C320.166 258.94 310.235 250.298 301.544 228.511C292.852 206.723 294.116 193.619 294.501 191.023C320.267 191.701 338.763 200.46 347.53 205.643C350.227 207.234 351.508 210.449 350.645 213.464H350.637Z" fill="#231F20"/>
<path d="M208.959 217.407C208.783 217.131 208.423 217.056 208.155 217.232C183.997 232.572 166.941 246.915 166.773 247.058C166.531 247.267 166.497 247.635 166.706 247.878C166.824 248.012 166.983 248.088 167.15 248.088C167.284 248.088 167.418 248.046 167.527 247.945C167.694 247.803 184.684 233.518 208.783 218.22C209.059 218.044 209.135 217.684 208.959 217.416V217.407Z" fill="white"/>
<path d="M212.517 307.983C212.358 307.832 196.7 292.885 188.938 273.417C181.176 253.957 182.256 232.329 182.264 232.111C182.281 231.785 182.038 231.508 181.712 231.491C181.377 231.466 181.109 231.718 181.092 232.044C181.075 232.262 179.987 254.142 187.849 273.853C195.712 293.564 211.554 308.686 211.714 308.828C211.831 308.937 211.973 308.987 212.115 308.987C212.275 308.987 212.425 308.929 212.542 308.803C212.769 308.569 212.752 308.2 212.517 307.974V307.983Z" fill="#231F20"/>
<path d="M370.557 200.987C369.167 197.495 351.466 201.791 346.082 203.181C345.805 203.256 345.638 203.533 345.713 203.809C345.789 204.085 346.065 204.253 346.341 204.177C346.366 204.177 346.383 204.169 346.408 204.161L350.846 215.289C350.846 215.289 350.804 215.314 350.788 215.322C350.536 215.465 350.444 215.775 350.587 216.026C350.679 216.193 350.855 216.294 351.039 216.294C351.123 216.294 351.206 216.277 351.29 216.227C356.163 213.53 371.956 204.47 370.566 200.979L370.557 200.987Z" fill="#231F20"/>
<path d="M353.283 214.778C350.612 211.295 348.996 207.225 348.535 202.863C348.393 201.54 347.087 200.619 345.47 200.828C343.854 201.037 342.531 202.519 342.699 204.094C343.235 209.151 345.11 213.865 348.209 217.901C349.172 219.157 351.148 219.325 352.471 218.362C353.794 217.399 354.103 215.833 353.3 214.778H353.283Z" fill="white"/>
<path d="M353.743 214.426C351.156 211.052 349.557 207.033 349.113 202.804C349.029 202.059 348.652 201.389 348.058 200.92C347.346 200.359 346.4 200.125 345.387 200.25C343.411 200.51 341.912 202.302 342.104 204.161C342.649 209.294 344.591 214.167 347.731 218.261C348.393 219.124 349.448 219.576 350.528 219.576C351.315 219.576 352.119 219.333 352.797 218.839C353.618 218.245 354.137 217.416 354.271 216.52C354.38 215.758 354.196 215.013 353.743 214.418V214.426ZM353.115 216.352C353.032 216.938 352.672 217.483 352.111 217.893C351.022 218.689 349.406 218.529 348.661 217.55C345.655 213.623 343.787 208.95 343.268 204.035C343.143 202.813 344.198 201.59 345.537 201.414C345.671 201.397 345.797 201.389 345.923 201.389C346.459 201.389 346.953 201.548 347.329 201.841C347.689 202.126 347.899 202.503 347.949 202.93C348.418 207.368 350.101 211.588 352.814 215.138C353.074 215.481 353.182 215.909 353.115 216.352Z" fill="#231F20"/>
<path d="M311.96 257.91C311.759 257.658 311.391 257.617 311.139 257.826C269.515 291.546 217.232 297.817 216.704 297.884C216.386 297.918 216.151 298.211 216.185 298.537C216.218 298.839 216.47 299.057 216.763 299.057C216.788 299.057 216.805 299.057 216.83 299.057C217.357 298.998 269.967 292.693 311.868 258.747C312.119 258.546 312.161 258.178 311.952 257.926L311.96 257.91Z" fill="#D1D3D4"/>
<path d="M48.7668 250.491C47.0084 246.932 29.8429 217.441 27.2053 198.517C27.2053 198.517 26.9038 235.393 42.2355 254.359C57.5673 273.325 48.7668 250.482 48.7668 250.482V250.491Z" fill="#D1D3D4"/>
<path d="M248.799 176.512C248.523 159.849 257.374 119.547 257.374 119.547C257.374 119.547 257.374 116.725 251.73 114.959C246.086 113.192 213.991 125.802 213.991 125.802C213.991 125.802 210.173 128.272 206.589 139.56C203.005 150.847 204.797 182.398 204.797 182.398C204.797 182.398 252.777 194.967 251.496 180.087C251.437 179.384 248.816 177.341 248.808 176.52L248.799 176.512Z" fill="#FF7900"/>
<path d="M296.327 89.0429L231.056 122.126L240.15 136.755L301.2 104.726L296.327 89.0429Z" fill="#FF7900"/>
<path d="M242.176 88.0381C238.475 83.3322 232.588 80.435 226.601 80.368C227.983 81.4901 229.365 82.6205 230.746 83.7425C223.662 83.3908 216.503 86.8491 212.367 92.6183C213.757 92.1997 215.289 92.275 216.637 92.8109C214.51 93.3636 212.425 94.0418 210.382 94.8457C210.072 94.9629 209.754 95.1053 209.57 95.3816C209.344 95.7249 209.411 96.177 209.503 96.579C210.993 103.554 216.227 109.985 223.202 111.459C224.391 111.71 225.597 111.819 226.802 111.969C229.465 112.304 232.094 112.865 234.774 113.016C236.457 113.108 238.165 113.033 239.806 112.639C240.309 112.522 240.719 112.396 241.079 112.254C242.134 111.835 242.678 111.224 243.424 109.968C245.232 106.895 246.564 103.546 246.455 99.9283C246.329 95.6495 244.839 91.3958 242.193 88.0213L242.176 88.0381Z" fill="white"/>
<path d="M242.595 87.7031C238.768 82.8382 232.798 79.8991 226.61 79.8321C226.4 79.8321 226.174 79.9745 226.099 80.1838C226.024 80.4015 226.091 80.636 226.267 80.7783L229.222 83.1899C222.507 83.3741 215.85 86.8407 211.931 92.3085C211.797 92.4927 211.797 92.7439 211.931 92.9365C212.065 93.1207 212.308 93.1961 212.517 93.1375C213.129 92.9533 213.748 92.8863 214.393 92.8947C212.97 93.3217 211.563 93.8157 210.181 94.36C209.871 94.4772 209.402 94.6698 209.118 95.0969C208.791 95.5993 208.858 96.1603 208.975 96.7046C210.625 104.416 216.294 110.563 223.085 111.994C224.006 112.187 224.944 112.304 225.856 112.405L226.727 112.514C227.656 112.631 228.578 112.773 229.499 112.924C231.207 113.192 232.965 113.468 234.732 113.569C235.184 113.594 235.62 113.61 236.038 113.61C237.453 113.61 238.735 113.468 239.915 113.183C240.476 113.049 240.903 112.916 241.255 112.773C242.494 112.271 243.131 111.509 243.859 110.261C246.045 106.552 247.058 103.169 246.966 99.9367C246.832 95.4737 245.274 91.1363 242.586 87.7199L242.595 87.7031ZM242.955 109.717C242.226 110.956 241.757 111.417 240.878 111.777C240.568 111.902 240.191 112.02 239.681 112.137C238.24 112.48 236.641 112.597 234.799 112.497C233.082 112.405 231.349 112.128 229.675 111.869C228.745 111.726 227.807 111.576 226.869 111.459L225.99 111.35C225.103 111.249 224.19 111.14 223.319 110.956C216.939 109.608 211.596 103.797 210.039 96.4869C209.972 96.1771 209.922 95.8589 210.039 95.6914C210.123 95.5574 210.349 95.4569 210.6 95.3648C212.618 94.5694 214.703 93.8911 216.796 93.3552C217.022 93.2966 217.181 93.104 217.198 92.8696C217.215 92.6435 217.081 92.4258 216.863 92.342C216.026 92.0071 215.138 91.8396 214.251 91.8396C214.058 91.8396 213.865 91.8396 213.681 91.8647C217.793 86.9244 224.324 84.0021 230.755 84.3035C230.989 84.3287 231.198 84.1779 231.282 83.9602C231.366 83.7425 231.299 83.4997 231.123 83.349L228.251 81.0128C233.476 81.5319 238.55 84.27 241.782 88.3898C244.328 91.6303 245.802 95.75 245.936 99.9786C246.028 103.01 245.056 106.2 242.98 109.734L242.955 109.717Z" fill="#231F20"/>
<path d="M238.668 124.077C238.416 124.119 238.199 124.278 238.157 124.521L227.288 122.88C227.288 122.83 227.288 122.796 227.288 122.796C227.288 122.511 227.028 122.269 226.761 122.285C226.476 122.285 226.25 122.528 226.25 122.813C226.258 123.332 226.543 135.557 232.714 135.968C232.823 135.968 232.932 135.976 233.032 135.976C234.146 135.976 235.134 135.582 235.971 134.804C239.036 131.973 239.162 124.906 239.17 124.613C239.17 124.328 238.944 124.094 238.659 124.094L238.668 124.077Z" fill="#231F20"/>
<path d="M241.749 100.581C241.732 100.439 241.715 100.288 241.64 100.163C241.531 99.987 241.33 99.9032 241.146 99.8111C239.639 99.1245 238.391 97.902 237.638 96.445C237.211 95.616 237.328 95.0801 236.365 95.2225C235.929 95.2895 235.31 95.8421 234.925 96.0514C231.944 97.6926 228.619 99.0994 225.195 99.3673C225.597 104.274 226.794 122.796 226.794 122.796C226.794 122.796 228.603 126.924 233.392 127.946C238.182 128.967 238.684 124.596 238.684 124.596L238.148 116.868C238.148 116.868 242.009 117.521 242.536 113.837C243.164 109.399 242.26 105.003 241.766 100.581H241.749Z" fill="white"/>
<path d="M242.637 103.361C242.511 102.415 242.385 101.469 242.285 100.523C242.268 100.355 242.243 100.113 242.092 99.8781C241.9 99.5767 241.607 99.4343 241.364 99.3255C239.982 98.6974 238.827 97.5838 238.107 96.1938C238.014 96.0096 237.947 95.8421 237.889 95.6998C237.696 95.2057 237.42 94.5275 236.273 94.6949C235.854 94.7619 235.427 95.055 235.05 95.323C234.899 95.4234 234.766 95.5239 234.657 95.5825C231.081 97.5503 227.975 98.6137 225.136 98.8314C224.994 98.8398 224.86 98.9068 224.768 99.0156C224.676 99.1245 224.634 99.2668 224.642 99.4092C225.036 104.249 226.225 122.637 226.233 122.821C226.233 122.88 226.25 122.947 226.275 123.005C226.35 123.181 228.251 127.402 233.25 128.465C233.769 128.574 234.263 128.632 234.732 128.632C235.745 128.632 236.616 128.373 237.345 127.854C238.936 126.707 239.187 124.739 239.195 124.555L238.701 117.446C239.404 117.446 240.56 117.345 241.514 116.642C242.352 116.03 242.863 115.109 243.038 113.904C243.541 110.345 243.08 106.795 242.628 103.353L242.637 103.361ZM241.983 113.761C241.858 114.666 241.489 115.344 240.895 115.779C239.798 116.591 238.232 116.34 238.215 116.34C238.056 116.307 237.889 116.365 237.772 116.474C237.654 116.583 237.587 116.742 237.596 116.91L238.132 124.538C238.132 124.538 237.922 126.137 236.717 127C235.913 127.569 234.824 127.72 233.484 127.435C229.39 126.564 227.581 123.232 227.305 122.671C227.213 121.222 226.174 105.17 225.756 99.8697C228.594 99.5515 231.684 98.4546 235.167 96.5371C235.31 96.4617 235.486 96.3361 235.661 96.2105C235.888 96.0514 236.264 95.7919 236.432 95.7668C236.641 95.7333 236.717 95.7584 236.725 95.7584C236.767 95.8002 236.834 95.9761 236.884 96.1101C236.951 96.2859 237.035 96.4869 237.144 96.7129C237.973 98.3123 239.312 99.5934 240.928 100.33C241.012 100.364 241.146 100.431 241.171 100.464C241.188 100.498 241.196 100.607 241.205 100.665C241.314 101.62 241.431 102.574 241.556 103.521C242 106.887 242.452 110.37 241.967 113.778L241.983 113.761Z" fill="#231F20"/>
<path d="M238.642 116.843C238.626 116.558 238.383 116.365 238.107 116.349C234.774 116.483 231.358 114.523 231.324 114.498C231.173 114.406 230.981 114.406 230.822 114.49C230.663 114.573 230.562 114.733 230.545 114.908C230.545 115.009 230.386 117.312 232.697 119.422C234.422 120.996 236.691 121.205 237.772 121.205C238.123 121.205 238.349 121.18 238.383 121.18C238.659 121.147 238.86 120.912 238.843 120.636L238.651 116.834L238.642 116.843Z" fill="#231F20"/>
<path d="M236.943 103.144L236.884 107.741C236.884 107.741 238.567 108.067 239.12 107.381C239.672 106.702 236.951 103.144 236.951 103.144H236.943Z" fill="white"/>
<path d="M237.746 108.344C237.303 108.344 236.926 108.277 236.784 108.252C236.499 108.201 236.315 107.925 236.373 107.649C236.423 107.364 236.691 107.18 236.976 107.238C237.554 107.347 238.475 107.347 238.709 107.062C238.718 106.744 237.721 105.028 236.532 103.462C236.356 103.236 236.398 102.909 236.633 102.733C236.859 102.558 237.185 102.599 237.361 102.834C239.329 105.405 240.058 107.054 239.522 107.716C239.111 108.226 238.366 108.352 237.746 108.352V108.344Z" fill="#231F20"/>
<path d="M240.058 109.926C239.848 109.725 239.522 109.742 239.321 109.951C238.425 110.906 237.453 111.392 236.44 111.316C234.338 111.216 232.614 108.997 232.597 108.972C232.421 108.746 232.094 108.704 231.868 108.871C231.642 109.047 231.6 109.374 231.768 109.6C231.852 109.708 233.794 112.221 236.382 112.354C236.449 112.354 236.524 112.354 236.591 112.354C237.847 112.354 239.019 111.785 240.074 110.655C240.267 110.445 240.258 110.119 240.049 109.918L240.058 109.926Z" fill="#231F20"/>
<path d="M254.024 237.981L255.699 228.017L240.443 221.368L231.885 256.227C231.885 256.227 274.556 241.933 276.097 237.269C277.637 232.605 254.024 237.973 254.024 237.973V237.981Z" fill="white"/>
<path d="M276.356 235.837C273.995 233.242 259.4 236.197 254.753 237.219L256.285 228.117C256.327 227.849 256.185 227.589 255.942 227.481L240.686 220.832C240.526 220.765 240.351 220.765 240.192 220.84C240.041 220.916 239.924 221.058 239.882 221.226L231.324 256.084C231.274 256.294 231.341 256.511 231.5 256.654C231.609 256.754 231.751 256.804 231.893 256.804C231.952 256.804 232.019 256.796 232.078 256.771C236.474 255.297 275.075 242.251 276.658 237.437C276.917 236.65 276.641 236.122 276.356 235.812V235.837ZM275.544 237.093C274.514 240.225 249.151 249.787 232.714 255.339L240.853 222.189L255.054 228.377L253.455 237.889C253.422 238.081 253.488 238.274 253.631 238.408C253.773 238.542 253.974 238.601 254.167 238.55C261.56 236.867 273.886 234.858 275.494 236.624C275.569 236.708 275.636 236.817 275.544 237.093Z" fill="#231F20"/>
<path d="M269.289 180.489C259.961 170.642 206.941 181.41 204.688 181.879C204.496 181.921 204.337 182.072 204.286 182.264C204.043 183.286 198.383 207.41 210.407 210.843C220.681 213.782 236.516 204.345 240.928 201.515L234.983 223.001C234.874 223.269 232.287 229.641 234.271 232.362C234.866 233.183 235.779 233.593 236.984 233.593C237.118 233.593 237.261 233.593 237.412 233.576C237.562 233.568 237.696 233.493 237.78 233.375C240.82 229.44 244.554 227.003 248.305 226.526C250.918 226.191 253.363 226.844 255.389 228.418C255.607 228.586 255.908 228.561 256.093 228.351C264.567 218.948 278.684 190.395 269.298 180.481L269.289 180.489Z" fill="#231F20"/>
<path d="M276.331 236.817C271.567 234.422 235.913 249.612 231.466 255.942C231.316 256.151 231.349 256.436 231.525 256.612C231.659 256.746 233.87 258.806 239.304 258.806C242.042 258.806 245.592 258.286 250.106 256.729C261.753 252.718 276.959 242.41 277.236 238.349C277.277 237.671 276.959 237.135 276.34 236.817H276.331Z" fill="#231F20"/>
<path d="M247.493 234.523L247.016 239.907C249.612 238.173 255.959 235.77 255.959 235.77V231.349C254.418 231.157 247.493 234.523 247.493 234.523Z" fill="white"/>
<path d="M256.034 230.763C254.426 230.579 248.423 233.417 247.242 233.995C247.058 234.087 246.932 234.263 246.915 234.472L246.438 239.857C246.421 240.083 246.53 240.3 246.723 240.409C246.815 240.468 246.915 240.493 247.024 240.493C247.141 240.493 247.25 240.459 247.351 240.392C249.863 238.718 256.118 236.34 256.176 236.315C256.402 236.231 256.553 236.013 256.553 235.77V231.349C256.553 231.056 256.335 230.805 256.042 230.771L256.034 230.763ZM255.373 235.368C254.133 235.846 250.206 237.411 247.702 238.81L248.054 234.908C250.499 233.736 253.924 232.27 255.381 231.977V235.368H255.373Z" fill="#231F20"/>
<path d="M173.238 145.84C169.645 150.713 163.491 179.953 163.491 179.953L176.286 178.111C176.286 178.111 187.858 159.941 191.45 156.097C195.042 152.254 215.306 146.861 215.306 146.861L219.149 123.826C219.149 123.826 176.83 140.966 173.238 145.84Z" fill="#FF7900"/>
<path d="M174.636 184.55L183.244 169.821L164.781 165.3C164.94 163.449 162.603 179.643 160.736 193.87C160.192 197.998 172.275 199.061 174.393 198.483C176.512 197.906 176.704 193.099 176.704 193.099C176.704 193.099 178.387 192.329 180.171 191.366C181.954 190.403 174.644 184.542 174.644 184.542L174.636 184.55Z" fill="white"/>
<path d="M183.78 169.595C183.704 169.428 183.562 169.302 183.378 169.252L165.266 164.814C165.149 164.63 164.956 164.579 164.847 164.571C164.571 164.538 164.412 164.529 164.211 165.333C164.211 165.308 164.194 165.274 164.194 165.249C164.194 165.291 164.194 165.333 164.194 165.367C163.935 166.43 163.583 168.867 162.804 174.368C161.908 180.673 160.937 187.749 160.15 193.786C160.066 194.439 160.192 195.41 161.255 196.34C163.608 198.391 169.403 199.204 172.626 199.204C173.48 199.204 174.15 199.145 174.536 199.044C176.696 198.458 177.156 194.732 177.257 193.476C177.835 193.208 179.116 192.589 180.43 191.877C180.774 191.693 180.975 191.383 181.017 191.006C181.167 189.331 177.148 185.848 175.39 184.408L183.746 170.114C183.838 169.955 183.855 169.763 183.78 169.587V169.595ZM174.125 184.257C173.975 184.508 174.042 184.826 174.268 185.011C177.349 187.481 179.962 190.236 179.886 190.855C178.144 191.793 176.47 192.563 176.461 192.572C176.26 192.664 176.126 192.865 176.118 193.083C176.076 194.221 175.632 197.546 174.242 197.922C172.643 198.358 164.638 197.738 162.034 195.469C161.481 194.992 161.247 194.489 161.322 193.953C162.922 181.778 164.73 169.101 165.233 166.02L182.348 170.215L174.134 184.265L174.125 184.257Z" fill="#231F20"/>
<path d="M325.215 70.9982C323.867 69.0723 312.906 78.3082 312.906 78.3082C312.906 78.3082 309.247 76.5749 306.559 78.3082C303.863 80.0415 304.056 84.6552 304.056 84.6552L291.554 89.0345C291.554 89.0345 297.323 108.704 297.323 109.281L308.51 96.7046C308.51 96.7046 312.328 96.579 315.979 93.6901C319.638 90.8013 316.365 81.5738 316.365 81.5738C322.519 77.1526 326.563 72.9157 325.215 70.9898V70.9982Z" fill="white"/>
<path d="M325.692 70.6632C325.558 70.4707 325.299 70.2278 324.83 70.1692C322.335 69.8175 314.891 75.8883 312.806 77.6383C311.776 77.228 308.694 76.2483 306.241 77.8225C303.788 79.4051 303.495 82.9889 303.469 84.2449L291.361 88.4902C291.068 88.5907 290.901 88.9089 290.993 89.2104C293.237 96.8637 296.612 108.511 296.737 109.332C296.754 109.558 296.896 109.759 297.114 109.842C297.181 109.868 297.256 109.884 297.323 109.884C297.491 109.884 297.65 109.817 297.759 109.683L308.787 97.2823C309.733 97.1986 313.082 96.7297 316.339 94.159C319.856 91.3874 317.662 83.709 317.051 81.7999C321.28 78.7268 327.635 73.4348 325.684 70.6632H325.692ZM316.021 81.1049C315.812 81.2556 315.72 81.5319 315.812 81.7748C316.683 84.2366 318.341 91.086 315.619 93.238C312.169 95.9593 308.527 96.1268 308.493 96.1268C308.334 96.1268 308.184 96.2022 308.075 96.3278L297.625 108.076C296.754 104.768 294.074 95.5658 292.274 89.4113L304.257 85.2162C304.499 85.1325 304.658 84.8981 304.65 84.6385C304.65 84.5966 304.508 80.3345 306.877 78.8106C309.255 77.2782 312.622 78.8273 312.663 78.8441C312.864 78.9446 313.116 78.9111 313.291 78.7603C318.575 74.3141 323.909 70.8307 324.746 71.3415C325.559 72.5054 323.18 75.972 316.038 81.1133L316.021 81.1049Z" fill="#231F20"/>
<path d="M256.352 117.68C256.277 117.395 255.975 117.203 255.691 117.286C255.406 117.362 255.23 117.638 255.306 117.923C255.481 119.397 252.216 149.8 248.783 166.698C248.724 166.991 248.908 167.267 249.201 167.326C249.235 167.326 249.277 167.334 249.31 167.334C249.561 167.334 249.779 167.159 249.838 166.907C253.279 149.993 256.645 118.769 256.352 117.68Z" fill="#231F20"/>
<path d="M219.66 144.768C219.568 144.492 219.266 144.333 218.982 144.425L195.084 152.279C194.808 152.371 194.648 152.673 194.741 152.957C194.816 153.183 195.025 153.326 195.251 153.326C195.31 153.326 195.36 153.317 195.419 153.301L219.317 145.446C219.593 145.354 219.752 145.053 219.66 144.768Z" fill="#231F20"/>
<path d="M313.4 78.1658C313.317 77.8895 313.032 77.7388 312.756 77.8225C312.479 77.9062 312.328 78.1909 312.404 78.4673C313.451 81.9757 314.69 88.0297 313.568 89.3276C313.467 89.4448 313.317 89.562 312.973 89.5118C309.749 89.0261 309.021 84.1528 309.013 84.1109C308.971 83.8346 308.711 83.642 308.435 83.6672C308.159 83.7007 307.958 83.9519 307.983 84.2365C307.983 84.2784 308.443 88.8419 305.831 89.5285C305.554 89.6039 305.387 89.8802 305.462 90.1566C305.538 90.4329 305.814 90.6003 306.09 90.525C307.807 90.0812 308.544 88.5656 308.845 87.1254C309.54 88.6326 310.754 90.2319 312.806 90.5334C312.906 90.5501 313.015 90.5585 313.107 90.5585C313.593 90.5585 314.012 90.3743 314.33 90.0058C316.197 87.8539 313.668 79.1539 313.375 78.1742L313.4 78.1658Z" fill="#231F20"/>
<path d="M231.165 102.725L229.088 101.226C228.938 101.117 228.745 101.101 228.586 101.168L222.674 103.705C222.482 103.788 222.364 103.973 222.364 104.182V105.472C222.364 105.631 222.44 105.79 222.574 105.882C222.666 105.949 222.775 105.982 222.884 105.982C222.934 105.982 222.984 105.982 223.026 105.966L231.014 103.629C231.207 103.571 231.349 103.412 231.383 103.219C231.416 103.026 231.332 102.826 231.173 102.717L231.165 102.725Z" fill="#231F20"/>
<path d="M226.853 106.56C225.957 105.455 224.55 103.437 222.875 104.182C222.432 104.383 222.063 104.726 221.77 105.12C220.497 106.828 220.849 108.98 221.87 110.705C222.75 112.195 225.354 114.381 226.911 112.329L226.853 106.552V106.56Z" fill="white"/>
<path d="M227.229 111.919C226.995 111.743 226.66 111.785 226.476 112.02C226.133 112.463 225.731 112.664 225.253 112.639C224.207 112.572 222.917 111.45 222.323 110.445C221.259 108.645 221.209 106.769 222.197 105.446C222.473 105.078 222.775 104.818 223.085 104.676C224.148 104.199 225.17 105.321 226.208 106.619L226.434 106.895C226.618 107.121 226.962 107.163 227.188 106.97C227.414 106.786 227.456 106.451 227.263 106.217L227.045 105.949C226.124 104.785 224.575 102.834 222.649 103.696C222.164 103.914 221.72 104.283 221.335 104.802C220.087 106.485 220.112 108.796 221.402 110.981C221.988 111.978 223.537 113.602 225.186 113.703C225.237 113.703 225.287 113.703 225.337 113.703C226.116 113.703 226.802 113.343 227.322 112.656C227.497 112.421 227.456 112.087 227.221 111.902L227.229 111.919Z" fill="#231F20"/>
<path d="M232.061 98.5216C230.093 98.7309 228.619 100.129 228.787 101.645C228.954 103.16 230.679 104.216 232.647 104.006C234.615 103.797 236.089 102.398 235.921 100.883C235.762 99.3673 234.029 98.3123 232.061 98.5216Z" fill="white"/>
<path d="M234.95 98.6053C234.121 98.0946 233.074 97.8852 232.002 97.9941C229.742 98.2369 228.058 99.8948 228.251 101.704C228.427 103.361 230.127 104.576 232.153 104.576C232.329 104.576 232.513 104.567 232.697 104.542C234.958 104.299 236.641 102.633 236.449 100.833C236.357 99.9283 235.821 99.1412 234.941 98.6053H234.95ZM235.394 100.95C235.519 102.164 234.263 103.303 232.597 103.487C230.914 103.663 229.457 102.817 229.323 101.603C229.197 100.381 230.453 99.2501 232.12 99.0659C232.27 99.0491 232.421 99.0408 232.563 99.0408C233.242 99.0408 233.878 99.2082 234.389 99.5264C234.975 99.8865 235.327 100.389 235.385 100.95H235.394Z" fill="#231F20"/>
<path d="M239.404 98.1783C237.437 98.3876 235.963 99.786 236.13 101.302C236.289 102.817 238.023 103.872 239.991 103.663C241.958 103.454 243.432 102.055 243.265 100.54C243.105 99.024 241.372 97.969 239.404 98.1783Z" fill="white"/>
<path d="M239.346 97.6424C237.085 97.8852 235.402 99.5515 235.594 101.352C235.77 103.01 237.47 104.216 239.497 104.216C239.672 104.216 239.857 104.207 240.041 104.182C242.302 103.939 243.985 102.281 243.792 100.473C243.6 98.6639 241.598 97.3912 239.346 97.634V97.6424ZM239.932 103.127C238.266 103.303 236.792 102.457 236.658 101.243C236.532 100.02 237.788 98.89 239.463 98.7058C239.614 98.6891 239.764 98.6807 239.907 98.6807C241.389 98.6807 242.62 99.4845 242.737 100.59C242.863 101.812 241.607 102.943 239.932 103.127Z" fill="#231F20"/>
</svg>
