<svg width="12" height="13" viewBox="0 0 12 13" fill="none" xmlns="http://www.w3.org/2000/svg">
<path fill-rule="evenodd" clip-rule="evenodd" d="M9.89416 3.40584L10.3975 2.90251C10.5342 2.76583 10.5342 2.54422 10.3975 2.40754L9.84246 1.85251C9.70578 1.71583 9.48418 1.71583 9.34749 1.85251L8.7976 2.40247C8.05539 1.88455 7.19811 1.55535 6.3 1.4434V1.05H6.65V0.35C6.65 0.1567 6.4933 0 6.3 0H4.9C4.7067 0 4.55 0.1567 4.55 0.35V1.05H4.9V1.4434C2.13759 1.78787 0 4.14428 0 7C0 10.0928 2.5072 12.6 5.6 12.6C8.6928 12.6 11.2 10.0928 11.2 7C11.2019 5.68549 10.7394 4.41256 9.89416 3.40584ZM5.6 11.55C3.0871 11.55 1.05 9.5129 1.05 7C1.05 4.4871 3.0871 2.45 5.6 2.45C8.1129 2.45 10.15 4.4871 10.15 7C10.15 9.5129 8.1129 11.55 5.6 11.55ZM1.4 7C1.4 9.31959 3.28041 11.2 5.6 11.2C6.7142 11.2014 7.78302 10.7587 8.56985 9.96985L5.6 7V2.8C3.28041 2.8 1.4 4.68041 1.4 7Z" fill="black"/>
</svg>
