<svg width="380" height="526" viewBox="0 0 380 526" fill="none" xmlns="http://www.w3.org/2000/svg">
<path d="M219.958 2.02239L290.922 2.5869L292.128 34.7094L221.465 35.5699L219.958 2.02239Z" fill="#FF7900"/>
<path d="M277.467 4.90525L380 5.83697L351.237 22.5367L380 35.0656L277.933 39.2419L277.467 4.90525Z" fill="#FF7900"/>
<path d="M139.287 407.409L116.624 409.821L120.811 342.15L108.94 341.536L111.796 417.537L149.415 415.126L139.287 407.409Z" fill="#FF7900"/>
<path d="M192.34 403.068L228.513 399.21L235.019 331.512L222.325 332.126L220.796 390.046L190.411 398.245L192.34 403.068Z" fill="#FF7900"/>
<path d="M86.6722 198.692C86.6722 200.693 85.0498 202.31 83.0548 202.31C81.0598 202.31 79.4375 200.687 79.4375 198.692C79.4375 196.697 81.0598 195.075 83.0548 195.075C85.0498 195.075 86.6722 196.697 86.6722 198.692Z" fill="#FF7900"/>
<path d="M221.794 0.268555L223.065 93.4955H220.659L218.05 0L221.794 0.268555Z" fill="black"/>
<path d="M158.579 456.122L159.061 508.21L128.194 518.339L129.158 522.68L162.92 516.892L163.884 523.162L170.154 520.75L162.437 450.334L158.579 456.122Z" fill="black"/>
<path d="M190.899 450.888L196.204 520.816L203.921 522.745L203.439 515.999L232.859 525.639L236.235 523.233L202.957 506.835L193.31 445.582L190.899 450.888Z" fill="black"/>
<path d="M139.769 472.52L224.172 466.732L192.822 393.422L139.287 404.998L139.769 472.52Z" fill="black"/>
<path d="M119.266 296.013L197.624 264.121L144.927 204.294L97.6938 232.026L119.266 296.013Z" fill="black"/>
<path d="M139.287 404.998L135.428 350.015L182.213 342.298L193.788 374.131L186.071 375.578L192.823 393.423L139.287 404.998Z" fill="#FF7900"/>
<path d="M172.018 351.396C172.018 351.983 171.541 352.459 170.954 352.459C170.368 352.459 169.891 351.983 169.891 351.396C169.891 350.81 170.368 350.333 170.954 350.333C171.541 350.333 172.018 350.81 172.018 351.396Z" fill="black"/>
<path d="M176.605 349.483C176.605 350.07 176.128 350.547 175.542 350.547C174.955 350.547 174.479 350.07 174.479 349.483C174.479 348.897 174.955 348.42 175.542 348.42C176.128 348.42 176.605 348.897 176.605 349.483Z" fill="black"/>
<path d="M188.669 378.011C188.669 378.011 166.099 384.155 156.173 374.941C159.127 400.58 192.45 388.884 192.45 388.884L188.669 378.011Z" fill="white"/>
<path d="M121.179 342.879L134.075 329.232C134.075 329.232 124.928 325.33 120.576 336.576C116.224 335.678 91.632 330.58 91.632 330.58L90.4317 334.483L99.8806 336.434L86.2334 335.985L86.0854 339.284L100.336 338.982L87.2857 342.282L88.7875 345.883L103.038 341.082L96.2907 346.628L98.6913 349.626L109.34 342.879H121.19H121.179Z" fill="#FF7900"/>
<path d="M222.112 332.669L208.404 318.161C208.404 318.161 218.127 314.012 222.753 325.971C227.373 325.012 253.522 319.597 253.522 319.597L254.799 323.741L244.753 325.812L259.261 325.335L259.42 328.843L244.276 328.525L258.148 332.033L256.553 335.859L241.41 330.756L248.584 336.653L246.035 339.843L234.718 332.669H222.123H222.112Z" fill="#FF7900"/>
<path d="M164.186 132.973L150.473 118.466C150.473 118.466 160.196 114.322 164.822 126.276C169.442 125.317 195.591 119.902 195.591 119.902L196.868 124.045L186.822 126.117L201.329 125.64L201.488 129.148L186.345 128.83L200.211 132.338L198.616 136.163L183.473 131.061L190.647 136.958L188.099 140.148L176.781 132.973H164.186Z" fill="#FF7900"/>
<path d="M141.288 371.571C141.288 373.823 139.462 375.648 137.21 375.648C134.957 375.648 133.132 373.823 133.132 371.571C133.132 369.318 134.957 367.493 137.21 367.493C139.462 367.493 141.288 369.318 141.288 371.571Z" fill="#FF7900"/>
<path d="M182.761 343.981L141.287 352.372C141.287 352.372 145.661 366.907 136.678 367.499C136.322 364.424 135.023 347.883 135.023 347.883L180.99 338.664L182.761 343.981Z" fill="black"/>
<path d="M121.201 294.589L121.672 328.147L84.3318 335.711L85.7513 340.435L121.672 337.125V339.964L128.765 340.435L125.454 292.226L121.201 294.589Z" fill="black"/>
<path d="M173.191 270.956L202.967 295.06L232.744 279.933L235.578 283.715L205.801 302.152L213.364 310.187L207.692 312.549L166.099 274.266L173.191 270.956Z" fill="black"/>
<path d="M97.6936 232.026L76.2969 180.206L114.919 160.3L139.161 182.097L131.597 187.298L144.926 204.294L97.6936 232.026Z" fill="#FF7900"/>
<path d="M149.558 218.017L180.283 204.782L161.862 139.638L178.441 136.963L192.099 211.874L151.449 219.908L149.558 218.017Z" fill="black"/>
<path d="M100.873 238.34L68.2842 242.308L31.3825 224.128L23.8959 231.078L66.6783 252.469L106.074 243.541L100.873 238.34Z" fill="black"/>
<path d="M223.164 69.5777L187.517 89.7467L185.599 80.8351C185.599 80.8351 209.462 66.4592 207.231 41.6918C193.119 54.8181 174.824 66.7222 174.824 66.7222L166.027 48.4934L168.477 65.5329L153.899 55.6238L165.857 73.7047L166.126 110.601L148.023 92.1254L165.857 123.705L191.463 118.438L189.649 97.765L224.09 75.4585L223.153 69.5722L223.164 69.5777Z" fill="#FF7900"/>
<path d="M171.903 75.0366C172.401 75.5682 173.092 75.9628 173.837 75.9573C174.374 75.9573 174.89 75.7217 175.224 75.2887C175.646 74.7406 175.701 74.0391 175.542 73.3868C175.498 73.206 175.41 73.058 175.306 72.8991C175.229 72.784 175.081 72.6305 174.928 72.6798C174.742 72.7346 174.829 72.8936 174.901 72.9977C175.514 73.8856 177.159 73.8911 177.931 73.2115C178.748 72.488 178.781 71.2219 177.734 70.1148" stroke="#1D1D1B" stroke-width="0.75" stroke-miterlimit="10"/>
<path d="M205.006 40.2121C205.006 42.1249 206.557 43.6814 208.475 43.6814C210.394 43.6814 211.939 42.1303 211.939 40.2121C211.939 38.2938 210.388 36.7427 208.475 36.7427C206.563 36.7427 205.006 38.2938 205.006 40.2121Z" fill="black"/>
<path d="M186.745 81.0982L165.77 82.4629V86.5899L187.781 84.8744L186.745 81.0982Z" fill="black"/>
<path d="M138.208 189.452C138.208 189.452 118.126 201.444 106.085 195.234C115.83 219.136 144.774 198.906 144.774 198.906L138.208 189.452Z" fill="white"/>
<path d="M111.313 171.535C111.313 172.122 110.836 172.599 110.25 172.599C109.664 172.599 109.187 172.122 109.187 171.535C109.187 170.949 109.664 170.472 110.25 170.472C110.836 170.472 111.313 170.949 111.313 171.535Z" fill="black"/>
<path d="M116.115 169.343C116.115 169.93 115.638 170.406 115.051 170.406C114.465 170.406 113.988 169.93 113.988 169.343C113.988 168.757 114.465 168.28 115.051 168.28C115.638 168.28 116.115 168.757 116.115 169.343Z" fill="black"/>
<path d="M115.912 161.155L76.2969 180.206L109.099 155.192L115.912 161.155Z" fill="black"/>
<path d="M76.2969 180.206C76.2969 180.206 90.6511 184.859 83.9755 198.199C88.3766 202.743 93.0571 207.144 93.0571 207.144L88.234 209.556L76.2969 180.206Z" fill="black"/>
<path d="M61.1375 179.335L66.5251 181.785L76.9605 162.339L75.8808 161.895L61.1375 179.335Z" fill="black"/>
<path d="M69.7148 165.742L61.0661 175.745L55.103 171.684L66.3606 165.452L69.7148 165.742Z" fill="black"/>
<path d="M29.0647 221.728L29.6566 204.234C29.6566 204.234 24.3183 208.086 22.8385 214.614C19.2814 211.057 8.90081 199.493 8.90081 199.493L6.52763 202.754L14.831 214.91L1.4853 204.234L0 208.98L13.0498 217.579L1.4853 214.318L1.18933 218.171L12.4578 221.728L3.56252 223.213L2.97059 226.475L20.4653 228.256L29.0647 221.734V221.728Z" fill="#FF7900"/>
<path d="M138.416 460.446L218.642 451.238L216.598 441.62L139.029 455.13L138.416 460.446Z" fill="white"/>
<path d="M138.618 445.506L213.118 435.07L211.073 430.565L138.004 439.57L138.618 445.506Z" fill="white"/>
<path d="M138.004 431.179L208.41 425.041L207.593 418.086L138.415 426.065L138.004 431.179Z" fill="white"/>
<path d="M139.44 418.902L202.886 409.897L198.178 402.526L139.44 412.353L139.232 419.719" fill="white"/>
<path d="M139.446 407.321L121.02 404.778L119.178 422.585L139.644 421.358L139.446 407.321Z" fill="black"/>
<path d="M193.962 396.283L213.529 389.432L219.053 405.392L200.43 411.536L193.962 396.283Z" fill="black"/>
<path d="M132.48 404.373L132.891 422.788L136.163 421.972L136.98 403.962L132.48 404.373Z" fill="white"/>
<path d="M195.519 393.318L204.113 412.967L209.024 411.536L197.563 391.888L195.519 393.318Z" fill="white"/>
<path d="M204.316 390.452L212.915 410.1L215.984 409.076L209.226 387.996L204.316 390.452Z" fill="white"/>
<path d="M128.797 404.165L125.93 424.427L123.064 423.61L124.703 404.165L129 403.551" fill="white"/>
<path d="M119.83 218.999L149.509 273.85L180.596 261.415L141.841 206.086L119.83 218.999Z" fill="white"/>
<path d="M139.802 216.149L139.095 221.942L132.173 221.092L131.751 213.178L139.802 216.143V216.149ZM139.238 222.934L140.18 247.756L162.833 264.045L159.55 236.734L139.238 222.928V222.934Z" fill="black"/>
</svg>
