<svg width="480" height="213" viewBox="0 0 480 213" fill="none" xmlns="http://www.w3.org/2000/svg">
<g clip-path="url(#clip0_23_20981)">
<path d="M227.963 31.4975L225.524 45.1688" stroke="#1D1D1B" stroke-width="2" stroke-miterlimit="10"/>
<path d="M232.358 31.9846L231.871 45.4105" stroke="#1D1D1B" stroke-width="2" stroke-miterlimit="10"/>
<path d="M115.882 67.9556C115.882 70.131 114.121 71.8925 111.945 71.8925C109.77 71.8925 108.008 70.131 108.008 67.9556C108.008 65.7802 109.77 64.0186 111.945 64.0186C114.121 64.0186 115.882 65.7802 115.882 67.9556Z" fill="#FF7900"/>
<path d="M64.2548 46.5678L55.7034 76.1115L63.7934 76.1591L60.6584 110.797L112.352 109.442L111.367 46.0771L64.2548 46.5678Z" fill="#FF7900"/>
<path d="M62.2991 85.9777C62.2991 85.9777 83.8993 88.0249 93.4506 80.0668C91.4033 99.3927 61.3909 99.3927 61.3909 99.3927L62.2991 85.9777Z" fill="white"/>
<path d="M23.4899 90.7497L23.0944 24.1326C23.0944 24.1326 44.7459 43.4439 84.544 42.5393C120.705 41.7153 138.094 27.8718 138.094 27.8718C138.094 27.8718 205.436 135.518 329.225 27.3188C331.91 39.2579 403.167 54.1048 443.401 23.9312C446.561 56.4047 454.567 103.568 454.567 103.568L478.368 99.9054C478.368 99.9054 457.706 36.8261 442.764 16.4235C404.255 27.9194 341.794 26.8061 328.365 16.6835C220.884 78.9937 140.16 18.185 140.16 18.185C140.16 18.185 120.962 23.4514 84.8077 24.1326C53.5427 24.7222 22.3327 14.7938 22.3327 14.7938L0 90.7533L23.4899 90.746V90.7497Z" fill="black"/>
<path d="M117.325 111.218L131.832 32.0871L138.501 28.3259L141.526 32.6218L120.281 113.947L117.325 111.218Z" fill="#FF7900"/>
<path d="M8.57703 91.0207L22.3363 17.6907C22.3363 17.6907 56.4432 30.4574 82.0755 30.4574C114.41 30.4574 136.801 19.7599 136.801 19.7599C136.801 19.7599 213.328 118.1 328.658 22.144C326.845 27.3225 382.017 53.2808 442.98 21.6093C448.759 34.0172 463.91 106.494 463.91 106.494L470.502 104.48C470.502 104.48 457.563 45.3446 442.734 18.9835C397.333 33.0796 337.623 30.4245 329.229 18.6941C218.584 97.7227 140.218 20.247 140.218 20.247C140.218 20.247 123.815 37.533 83.5405 37.7783C43.4823 38.0201 22.3363 19.7159 22.3363 19.7159L14.2829 91.5408L8.57703 91.0207Z" fill="white"/>
<path d="M56.8425 113.493L35.6964 29.1353L30.3605 29.073L23.3875 24.3853L25.2369 29.5894L54.5682 114.855L56.8425 113.493Z" fill="#FF7900"/>
<path d="M35.6963 29.1353L39.1059 21.1771L28.4193 18.2217C28.4193 18.2217 26.9251 22.5505 31.9388 23.6089C29.6535 25.1031 30.6936 29.5931 30.6936 29.5931L35.6963 29.139V29.1353Z" fill="#FF7900"/>
<path d="M36.524 13.4094H31.8619V27.3042H36.524V13.4094Z" fill="#FF7900"/>
<path d="M32.2794 11.2999H27.9908V23.5723H32.2794V11.2999Z" fill="#FF7900"/>
<path d="M28.2692 12.7063H24.563V22.9827H28.2692V12.7063Z" fill="#FF7900"/>
<path d="M25.3101 13.783H22.1422V21.9352H25.3101V13.783Z" fill="#FF7900"/>
<path d="M131.762 33.6216L128.968 21.8071L139.764 18.9066C139.764 18.9066 141.255 23.2354 136.245 24.2938C138.533 25.788 138.079 30.7467 138.079 30.7467L131.762 33.6216Z" fill="#FF7900"/>
<path d="M131.29 28.2674L135.604 28.0623L135.347 14.2151L131.29 14.3726V28.2674Z" fill="#FF7900"/>
<path d="M138.753 13.1421H134.465V25.4144H138.753V13.1421Z" fill="#FF7900"/>
<path d="M141.844 13.8928H138.142V24.1692H141.844V13.8928Z" fill="#FF7900"/>
<path d="M144.32 15.2809H141.152V23.4331H144.32V15.2809Z" fill="#FF7900"/>
<path d="M0.834961 91.8484V104.787" stroke="#1D1D1B" stroke-miterlimit="10"/>
<path d="M3.31799 91.8191V104.758" stroke="#1D1D1B" stroke-miterlimit="10"/>
<path d="M5.95117 92.0498V104.985" stroke="#1D1D1B" stroke-miterlimit="10"/>
<path d="M8.8811 92.5369V105.472" stroke="#1D1D1B" stroke-miterlimit="10"/>
<path d="M11.6168 92.1816V105.121" stroke="#1D1D1B" stroke-miterlimit="10"/>
<path d="M14.3013 91.8484V104.787" stroke="#1D1D1B" stroke-miterlimit="10"/>
<path d="M16.9344 92.5369V105.476" stroke="#1D1D1B" stroke-miterlimit="10"/>
<path d="M19.6189 92.0498V104.985" stroke="#1D1D1B" stroke-miterlimit="10"/>
<path d="M22.3033 91.5591V104.498" stroke="#1D1D1B" stroke-miterlimit="10"/>
<path d="M455.402 106.032L457.768 118.752" stroke="#1D1D1B" stroke-miterlimit="10"/>
<path d="M457.834 105.549L460.2 118.272" stroke="#1D1D1B" stroke-miterlimit="10"/>
<path d="M460.467 105.293L462.833 118.012" stroke="#1D1D1B" stroke-miterlimit="10"/>
<path d="M463.434 105.238L465.799 117.957" stroke="#1D1D1B" stroke-miterlimit="10"/>
<path d="M466.06 104.392L468.425 117.111" stroke="#1D1D1B" stroke-miterlimit="10"/>
<path d="M468.638 103.571L471.004 116.291" stroke="#1D1D1B" stroke-miterlimit="10"/>
<path d="M471.355 103.766L473.721 116.485" stroke="#1D1D1B" stroke-miterlimit="10"/>
<path d="M473.904 102.795L476.27 115.514" stroke="#1D1D1B" stroke-miterlimit="10"/>
<path d="M476.457 101.824L478.819 114.544" stroke="#1D1D1B" stroke-miterlimit="10"/>
<path d="M71.7113 60.6859C71.7113 61.5466 71.0155 62.2424 70.1549 62.2424C69.2942 62.2424 68.5984 61.5466 68.5984 60.6859C68.5984 59.8253 69.2942 59.1295 70.1549 59.1295C71.0155 59.1295 71.7113 59.8253 71.7113 60.6859Z" fill="black"/>
<path d="M78.4535 61.5942C78.4535 62.4548 77.7577 63.1507 76.8971 63.1507C76.0364 63.1507 75.3406 62.4548 75.3406 61.5942C75.3406 60.7336 76.0364 60.0377 76.8971 60.0377C77.7577 60.0377 78.4535 60.7336 78.4535 61.5942Z" fill="black"/>
<path d="M60.6586 110.797L112.352 109.442L114.542 166.662L53.5171 166.42L60.6586 110.797Z" fill="black"/>
<path d="M89.5175 165.387L88.5396 203.222H83.6578L84.1303 199.864L66.9688 204.951L66.8369 202.494L83.9032 195.169L86.8294 162.216L89.5175 165.387Z" fill="black"/>
<path d="M94.575 165.384L97.86 203.091L102.735 202.79L102.035 199.381L118.797 202.494V200.827L101.998 194.766L97.058 162.051L94.575 165.384Z" fill="black"/>
<path d="M60.6585 110.797L54.4912 93.6758L41.7977 101L60.5926 126.875" fill="black"/>
<path d="M110.88 111.01L115.516 86.6003L133.337 95.6315L111.125 130.05L110.88 111.01Z" fill="black"/>
<path d="M402.467 46.5678L408.642 75.705L402.929 76.1591L406.064 110.797L354.371 109.442L355.356 46.0771L402.467 46.5678Z" fill="#FF7900"/>
<path d="M349.397 111.218L334.887 32.0871L329.061 27.491L324.809 31.102L346.442 113.947L349.397 111.218Z" fill="#FF7900"/>
<path d="M409.88 113.493L431.026 29.1353L436.464 28.5054L443.397 23.9276L442.416 26.8134L441.482 29.5895L412.151 114.855L409.88 113.493Z" fill="#FF7900"/>
<path d="M431.026 29.1353L427.616 21.1771L438.303 18.2217C438.303 18.2217 439.794 22.5505 434.784 23.6089C437.069 25.1031 436.029 29.5931 436.029 29.5931L431.026 29.139V29.1353Z" fill="#FF7900"/>
<path d="M430.876 27.2236L433.897 27.3115V13.4058L430.198 13.4094L430.876 27.2236Z" fill="#FF7900"/>
<path d="M437.933 11.5673H433.645V23.8397H437.933V11.5673Z" fill="#FF7900"/>
<path d="M437.23 23.3122L440.138 23.0193L440.607 12.6293L437.344 12.7062L437.23 23.3122Z" fill="#FF7900"/>
<path d="M439.999 21.84L442.815 21.8583L442.943 13.512L439.999 13.3655V21.84Z" fill="#FF7900"/>
<path d="M334.96 33.6216L337.641 21.862L326.955 18.9066C326.955 18.9066 325.461 23.2354 330.474 24.2938C328.189 25.788 328.515 30.2157 328.515 30.2157L334.957 33.6216H334.96Z" fill="#FF7900"/>
<path d="M335.788 15.3761H331.126V29.2708H335.788V15.3761Z" fill="#FF7900"/>
<path d="M331.544 13.2666H327.259V25.5389H331.544V13.2666Z" fill="#FF7900"/>
<path d="M327.53 14.6729H323.827V24.9493H327.53V14.6729Z" fill="#FF7900"/>
<path d="M324.973 16.2184H321.805V24.3706H324.973V16.2184Z" fill="#FF7900"/>
<path d="M395.007 60.6859C395.007 61.5466 395.703 62.2424 396.564 62.2424C397.424 62.2424 398.12 61.5466 398.12 60.6859C398.12 59.8253 397.424 59.1295 396.564 59.1295C395.703 59.1295 395.007 59.8253 395.007 60.6859Z" fill="black"/>
<path d="M388.269 61.5942C388.269 62.4548 388.965 63.1507 389.825 63.1507C390.686 63.1507 391.382 62.4548 391.382 61.5942C391.382 60.7336 390.686 60.0377 389.825 60.0377C388.965 60.0377 388.269 60.7336 388.269 61.5942Z" fill="black"/>
<path d="M406.064 110.797L354.371 109.442L352.181 166.662L413.205 166.42L406.064 110.797Z" fill="black"/>
<path d="M406.064 110.797L408.928 99.7809L424.306 102.465L406.13 126.875" fill="black"/>
<path d="M355.843 111.009L350.1 94.6537L336.429 102.465L355.597 130.05L355.843 111.009Z" fill="black"/>
<path d="M359.908 154.159L359.088 192.133L364.815 192.367L363.061 154.507L359.908 154.159Z" fill="black"/>
<path d="M358.97 195.29L358.853 210.712L361.776 210.595L362.794 202.79L380.12 212.349L364.815 194.239L358.97 195.29Z" fill="black"/>
<path d="M374.279 155.092L373.697 191.899L378.018 191.316L376.615 154.507L374.279 155.092Z" fill="black"/>
<path d="M374.63 195.055L374.154 210.84L376.366 211.21L376.938 203.955L393.909 211.763L378.135 193.536L374.63 195.055Z" fill="black"/>
<path d="M402.467 46.5678C402.467 46.5678 385.493 60.4809 362.548 53.8924C361.571 61.7041 360.596 92.2146 360.596 92.2146L345.951 91.2368L355.356 46.0771L402.467 46.5642V46.5678Z" fill="black"/>
<path d="M367.43 55.4745C367.43 57.6975 365.628 59.503 363.402 59.503C361.175 59.503 359.373 57.7012 359.373 55.4745C359.373 53.2478 361.175 51.446 363.402 51.446C365.628 51.446 367.43 53.2478 367.43 55.4745Z" fill="white"/>
<path d="M360.088 109.607L357.667 166.662L364.255 166.757L363.677 109.691L360.088 109.607Z" fill="white"/>
<path d="M371.781 109.882L371.667 166.662L378.41 166.566L376.707 110.032L371.781 109.882Z" fill="white"/>
<path d="M385.119 110.237L387.602 166.566H392.799L389.144 110.347L385.119 110.237Z" fill="white"/>
<path d="M396.41 110.533L401.127 166.903L407.218 166.709L401.358 110.702L396.41 110.533Z" fill="white"/>
<path d="M245.784 22.3454C245.784 29.963 239.609 36.1376 231.991 36.1376C224.374 36.1376 218.199 29.963 218.199 22.3454C218.199 14.7278 224.374 8.55322 231.991 8.55322C239.609 8.55322 245.784 14.7278 245.784 22.3454Z" fill="#FF7900"/>
<path d="M242.363 26.3703L259.942 32.4753L253.837 38.8221L242.363 26.3703Z" fill="#FF7900"/>
<path d="M221.862 15.8741L214.295 14.9L219.91 20.5143L221.862 15.8741Z" fill="black"/>
<path d="M231.46 8.65576L242.997 8.92311L239.814 10.7799L246.842 15.2882L242.865 16.4821L231.46 8.65576Z" fill="#FF7900"/>
<path d="M404.046 82.938C404.046 82.938 383.541 89.7719 374.51 78.0562C375.729 85.3808 386.471 105.15 405.998 98.0706C425.525 90.9914 404.046 82.938 404.046 82.938Z" fill="white"/>
<path d="M64.9544 110.621L59.8638 166.662L65.2327 166.907L69.4736 110.541L64.9544 110.621Z" fill="white"/>
<path d="M77.6332 110.321L74.9487 166.515L82.3209 166.662L81.3321 110.211L77.6332 110.321Z" fill="white"/>
<path d="M89.792 110.021L91.766 166.596L96.9664 166.662L96.9957 109.856L89.792 110.021Z" fill="white"/>
<path d="M102.035 109.662L103.068 166.662H108.682L106.005 109.581L102.035 109.662Z" fill="white"/>
<path d="M64.2549 46.5678C64.2549 46.5678 78.351 59.9938 107.459 49.0106C104.895 57.0676 103.035 75.7819 111.821 77.0637C111.638 65.1649 111.363 46.0807 111.363 46.0807L64.2512 46.5678H64.2549Z" fill="black"/>
<path d="M202.43 2.68624L201.796 8.94876C201.796 8.94876 199.763 8.32251 199.694 10.1537C199.624 11.9848 202.118 11.0985 202.118 11.0985L202.803 4.3709L208.311 3.36377L207.579 7.72556C207.579 7.72556 205.817 7.71457 205.748 8.83889C205.678 9.96321 207.846 9.7215 207.846 9.7215L209.465 0.994263L202.426 2.68258L202.43 2.68624Z" fill="black"/>
<path d="M232.347 16.7641C231.871 17.2731 231.208 17.6504 230.494 17.6467C229.977 17.6467 229.487 17.4196 229.168 17.0095C228.765 16.4821 228.71 15.8156 228.864 15.1893C228.904 15.0135 228.988 14.8743 229.091 14.7242C229.168 14.6143 229.303 14.4678 229.457 14.5154C229.637 14.5704 229.549 14.7205 229.483 14.8194C228.893 15.6727 227.322 15.6727 226.582 15.0245C225.799 14.3287 225.769 13.1201 226.769 12.058" stroke="#1D1D1B" stroke-miterlimit="10"/>
</g>
<defs>
<clipPath id="clip0_23_20981">
<rect width="480" height="213" fill="white"/>
</clipPath>
</defs>
</svg>
