<svg width="30" height="30" viewBox="0 0 30 30" fill="none" xmlns="http://www.w3.org/2000/svg">
<path fill-rule="evenodd" clip-rule="evenodd" d="M21 26.25H9C8.58579 26.25 8.25 26.5858 8.25 27V28.5H21.75V27C21.75 26.5858 21.4142 26.25 21 26.25ZM23.25 3.75V1.5H6.75V3.75H2.25V9C2.25 11.9845 4.42917 14.4596 7.2831 14.922C8.21064 17.3641 10.2375 19.2243 12.75 19.9394V23.25H12C10.7574 23.25 9.75 24.2574 9.75 25.5H20.25C20.25 24.2574 19.2426 23.25 18 23.25H17.25V19.9394C19.7625 19.2243 21.7894 17.3641 22.7169 14.922C25.5708 14.4596 27.75 11.9845 27.75 9V3.75H23.25ZM5.28015 11.97C4.48989 11.184 4.04693 10.1146 4.05 9V5.55H6.75V12C6.75015 12.3159 6.76826 12.6316 6.80424 12.9454C6.23117 12.7353 5.71099 12.4024 5.28015 11.97ZM17.8125 14.25L15 12.3118L12.1875 14.25L13.3125 10.875L10.5 8.625H13.875L15 5.25L16.125 8.625H19.5L16.6875 10.875L17.8125 14.25ZM25.95 9C25.9487 10.7621 24.8495 12.3368 23.1958 12.9454C23.2317 12.6316 23.2498 12.3159 23.25 12V5.55H25.95V9Z" fill="#999999"/>
</svg>
